# xmcd
#
# Track frame offsets: 
#        187
#        13130
#        27242
#        42552
#        58542
#        76365
#        92015
#        109042
#        125465
#        143735
#
# Disc length: 2077 seconds
#
# Revision: 2
# Processed by: cddbd v1.5.2PL0 Copyright (c) Steve Scherf et al.
# Submitted via: ExactAudioCopy v1.0b2
#
DISCID=7f081b0a
DTITLE=Various Artist - Country Classics Vol. 6
DYEAR=1988
DGENRE=Country
TTITLE0=George Strait - Nobody In His Right Mind Would've Left Her
TTITLE1=Reba McEntire - Little Rock
TTITLE2=Lee Greenwood - I Don't Mind The Thorns
TTITLE3=Oak Ridge Boys - Juliet
TTITLE4=John Conlee - Old School
TTITLE5=Waylon Jennings - Will The Wolf Survive
TTITLE6=John Schneider - I'm Gonna Leave You Tomorrow
TTITLE7=Barbara Mandrell - Fast Lanes and Country Roads
TTITLE8=Steve Wariner - You Can Dream Of Me
TTITLE9=Razzy Bailey - Rockin' In The Parking Lot
EXTD=
EXTT0=
EXTT1=
EXTT2=
EXTT3=
EXTT4=
EXTT5=
EXTT6=
EXTT7=
EXTT8=
EXTT9=
PLAYORDER=
